<svg xmlns="http://www.w3.org/2000/svg" width="512" height="288" fill="none"><g clip-path="url(#a)"><path fill="#E8EEFF" d="M0 0h512v288H0z"/><path fill="#E8EEFF" d="M0 0h512v288H0z"/><path fill="#fff" d="M137 104h238v186H137z"/><path fill="#DADDE3" d="M149 116h50.046v8H149z"/><path stroke="#C8CCD1" stroke-width=".5" d="M149 130h214"/><path fill="#EAECF0" d="M149 142h130v146H149zM287 142h76v146h-76z"/><path fill="#36C" d="M206.108 116.639c.353.425.984.483 1.409.131l6.926-5.748a1 1 0 1 0-1.278-1.539l-6.156 5.109-5.109-6.157a1 1 0 1 0-1.539 1.278zM137 72.349l.067.997c29.591-1.988 47.131 4.843 57.082 13.984 9.959 9.148 12.462 20.739 11.733 28.577l.996.093.996.093c.779-8.379-1.896-20.613-12.372-30.236-10.485-9.63-28.638-16.517-58.569-14.507zM271.824 116.67a1 1 0 0 1-1.412.072l-6.679-6.032a1 1 0 0 1 1.34-1.484l5.937 5.362 5.362-5.937a1 1 0 0 1 1.484 1.34zM318 62.427l-.122.993c-9.824-1.206-17.61.266-23.757 3.4-6.152 3.136-10.734 7.971-14.087 13.602-6.726 11.292-8.454 25.695-7.953 35.527l-.999.051-.999.051c-.512-10.071 1.237-24.908 8.232-36.653 3.507-5.888 8.347-11.02 14.897-14.36 6.555-3.341 14.751-4.85 24.91-3.603z"/><mask id="b" fill="#fff"><path d="M15 57h110v134H15z"/></mask><path fill="#fff" d="M15 57h110v134H15z"/><path fill="#C8CCD1" d="M15 57v-.5h-.5v.5zm110 0h.5v-.5h-.5zm0 134v.5h.5v-.5zm-110 0h-.5v.5h.5zm0-134v.5h110v-1H15zm110 0h-.5v134h1V57zm0 134v-.5H15v1h110zm-110 0h.5V57h-1v134z" mask="url(#b)"/><path fill="#36C" d="m32.02 66.706-7.76 9.485-3.025-3.026 1.13-1.13 1.775 1.775 6.642-8.116zm.18 9.094h-4v-1.6h4zm2.4-3.2h-4V71h4zM37 67.8v1.6h-4v-1.6z"/><path fill="#DADDE3" d="M43 67h76v8H43z"/><mask id="c" fill="#fff"><path d="M21 85h98v56H21z"/></mask><path fill="#C8CCD1" d="M21 85v.5h98v-1H21z" mask="url(#c)"/><path fill="#DADDE3" d="M23 91h56.222v8H23zM23 103h94v8H23zM23 115h94v8H23zM23 127h43.728v8H23z"/><mask id="d" fill="#fff"><path d="M21 141h98v44H21z"/></mask><path fill="#C8CCD1" d="M21 141v.5h98v-1H21z" mask="url(#d)"/><path fill="#DADDE3" d="M23 147h56.222v8H23zM88.279 147H117v8H88.279zM23 159h94v8H23zM23 171h43.728v8H23z"/><mask id="e" fill="#fff"><path d="M329 41h90v42h-90z"/></mask><path fill="#fff" d="M329 41h90v42h-90z"/><path fill="#C8CCD1" d="M329 41v-.5h-.5v.5zm90 0h.5v-.5h-.5zm0 42v.5h.5V83zm-90 0h-.5v.5h.5zm0-42v.5h90v-1h-90zm90 0h-.5v42h1V41zm0 42v-.5h-90v1h90zm-90 0h.5V41h-1v42z" mask="url(#e)"/><path fill="#36C" d="M337.4 49.4v11.2h12.8v1.6h-14.4V49.4zm12 10.4h-11.2v-2.4l3.2-3.2 2.4 1.6 5.6-4.8z"/><path fill="#DADDE3" d="M357 51h53.981v8H357zM335 69h36v8h-36zM377 69h36v8h-36z"/><path fill="#fff" d="M408 104h90v164h-90z"/><mask id="f" fill="#fff"><path d="M408 104h90v164h-90z"/></mask><path fill="#C8CCD1" d="M408 104v-.5h-.5v.5zm90 0h.5v-.5h-.5zm0 164v.5h.5v-.5zm-90 0h-.5v.5h.5zm0-164v.5h90v-1h-90zm90 0h-.5v164h1V104zm0 164v-.5h-90v1h90zm-90 0h.5V104h-1v164z" mask="url(#f)"/><path fill="#36C" d="M418 111.6a6.12 6.12 0 0 1 3.513 1.2h.974a6.13 6.13 0 0 1 3.513-1.2h3.2v12H426a6.12 6.12 0 0 0-4 1.6 6.12 6.12 0 0 0-4-1.6h-3.2v-12zm8 1.2c-2.4 0-3.2 1.2-3.2 1.2v9.2a3.5 3.5 0 0 1 2.4-.8h2.8v-9.6z"/><path fill="#DADDE3" d="M436 114h56v8h-56z"/><mask id="g" fill="#fff"><path d="M414 132h78v30h-78z"/></mask><path fill="#C8CCD1" d="M414 132v-.5h-.5v.5zm78 0h.5v-.5h-.5zm-78 0v.5h78v-1h-78zm78 0h-.5v30h1v-30zm-78 30h.5v-30h-1v30z" mask="url(#g)"/><path fill="#DADDE3" d="M420 138h66v8h-66zM420 148h54.805v8H420z"/><mask id="h" fill="#fff"><path d="M414 162h78v30h-78z"/></mask><path fill="#C8CCD1" d="M414 162v-.5h-.5v.5zm78 0h.5v-.5h-.5zm-78 0v.5h78v-1h-78zm78 0h-.5v30h1v-30zm-78 30h.5v-30h-1v30z" mask="url(#h)"/><path fill="#DADDE3" d="M420 168h37.59v8H420zM420 178h66v8h-66z"/><mask id="i" fill="#fff"><path d="M414 192h78v40h-78z"/></mask><path fill="#C8CCD1" d="M414 192v-.5h-.5v.5zm78 0h.5v-.5h-.5zm-78 0v.5h78v-1h-78zm78 0h-.5v40h1v-40zm-78 40h.5v-40h-1v40z" mask="url(#i)"/><path fill="#DADDE3" d="M420 198h37.22v8H420zM420 208h66v8h-66zM420 218h58.322v8H420z"/><mask id="j" fill="#fff"><path d="M414 232h78v30h-78z"/></mask><path fill="#C8CCD1" d="M414 232v-.5h-.5v.5zm78 0h.5v-.5h-.5zm0 30v.5h.5v-.5zm-78 0h-.5v.5h.5zm0-30v.5h78v-1h-78zm78 0h-.5v30h1v-30zm0 30v-.5h-78v1h78zm-78 0h.5v-30h-1v30z" mask="url(#j)"/><path fill="#DADDE3" d="M420 238h66v8h-66zM420 248h54.805v8H420z"/><path fill="#36C" d="M339.503 248.086a1 1 0 0 1-1.411.097l-6.782-5.916a1 1 0 1 1 1.314-1.507l6.029 5.258 5.258-6.029a1 1 0 0 1 1.508 1.314zm59.747-52.114-.092.996c-25.494-2.332-40.592 5.664-49.192 16.421-8.65 10.817-10.859 24.59-10.219 33.972l-.997.068-.998.068c-.665-9.734 1.608-24.047 10.652-35.357 9.092-11.372 24.897-19.546 50.937-17.164z"/></g><defs><clipPath id="a"><path fill="#fff" d="M0 0h512v288H0z"/></clipPath></defs></svg>