<svg xmlns="http://www.w3.org/2000/svg" width="512" height="288" fill="none"><g clip-path="url(#a)"><path fill="#E8EEFF" d="M0 0h512v288H0z"/><path fill="#fff" d="M88 33h336v284H88z"/><path fill="#DADDE3" d="M100 45h50.046v8H100z"/><path stroke="#C8CCD1" stroke-width=".5" d="M100 59h312"/><mask id="b" fill="#fff"><path d="M100 71h208v234H100z"/></mask><path fill="#C8CCD1" d="M100 71v-.5h-.5v.5zm208 0h.5v-.5h-.5zm0 234v.5h.5v-.5zm-208 0h-.5v.5h.5zm0-234v.5h208v-1H100zm208 0h-.5v234h1V71zm0 234v-.5H100v1h208zm-208 0h.5V71h-1v234z" mask="url(#b)"/><path fill="#36C" d="m117.019 80.706-7.759 9.485-3.025-3.026 1.131-1.13 1.774 1.775 6.642-8.116zm.181 9.094h-4v-1.6h4zm2.4-3.2h-4V85h4zm2.399-4.8v1.6H118v-1.6z"/><path fill="#DADDE3" d="M128 81h174v8H128z"/><mask id="c" fill="#fff"><path d="M106 99h196v56H106z"/></mask><path fill="#C8CCD1" d="M106 99v.5h196v-1H106z" mask="url(#c)"/><path fill="#DADDE3" d="M108 105h56.222v8H108zM170.222 105h46.945v8h-46.945zM271.279 105H300v8h-28.721zM108 117h192v8H108zM108 129h192v8H108zM108 141h43.728v8H108z"/><mask id="d" fill="#fff"><path d="M106 155h196v44H106z"/></mask><path fill="#C8CCD1" d="M106 155v.5h196v-1H106z" mask="url(#d)"/><path fill="#DADDE3" d="M108 161h56.222v8H108zM271.279 161H300v8h-28.721zM108 173h192v8H108zM108 185h43.728v8H108z"/><mask id="e" fill="#fff"><path d="M106 199h196v56H106z"/></mask><path fill="#C8CCD1" d="M106 199v.5h196v-1H106z" mask="url(#e)"/><path fill="#DADDE3" d="M108 205h56.222v8H108zM170.222 205h46.945v8h-46.945zM271.279 205H300v8h-28.721zM108 217h192v8H108zM108 229h192v8H108zM108 241h43.728v8H108z"/><mask id="f" fill="#fff"><path d="M106 255h196v44H106z"/></mask><path fill="#C8CCD1" d="M106 255v.5h196v-1H106z" mask="url(#f)"/><path fill="#DADDE3" d="M108 261h56.222v8H108zM271.279 261H300v8h-28.721zM108 273h200.597v8H108zM108 285h43.728v8H108z"/><mask id="g" fill="#fff"><path d="M316 71h96v42h-96z"/></mask><path fill="#C8CCD1" d="M316 71v-.5h-.5v.5zm96 0h.5v-.5h-.5zm0 42v.5h.5v-.5zm-96 0h-.5v.5h.5zm0-42v.5h96v-1h-96zm96 0h-.5v42h1V71zm0 42v-.5h-96v1h96zm-96 0h.5V71h-1v42z" mask="url(#g)"/><path fill="#36C" d="M324.4 79.4v11.2h12.8v1.6h-14.4V79.4zm12 10.4h-11.2v-2.4l3.2-3.2 2.4 1.6 5.6-4.8z"/><path fill="#DADDE3" d="M344 81h53.981v8H344zM322 99h39v8h-39zM367 99h39v8h-39z"/><mask id="h" fill="#fff"><path d="M316 121h96v164h-96z"/></mask><path fill="#C8CCD1" d="M316 121v-.5h-.5v.5zm96 0h.5v-.5h-.5zm0 164v.5h.5v-.5zm-96 0h-.5v.5h.5zm0-164v.5h96v-1h-96zm96 0h-.5v164h1V121zm0 164v-.5h-96v1h96zm-96 0h.5V121h-1v164z" mask="url(#h)"/><path fill="#36C" d="M326 128.6a6.12 6.12 0 0 1 3.513 1.2h.975a6.13 6.13 0 0 1 3.512-1.2h3.2v12H334a6.12 6.12 0 0 0-4 1.6 6.12 6.12 0 0 0-4-1.6h-3.2v-12zm8 1.2c-2.4 0-3.2 1.2-3.2 1.2v9.2a3.5 3.5 0 0 1 2.4-.8h2.8v-9.6z"/><path fill="#DADDE3" d="M344 131h62v8h-62z"/><mask id="i" fill="#fff"><path d="M322 149h84v30h-84z"/></mask><path fill="#C8CCD1" d="M322 149v-.5h-.5v.5zm84 0h.5v-.5h-.5zm-84 0v.5h84v-1h-84zm84 0h-.5v30h1v-30zm-84 30h.5v-30h-1v30z" mask="url(#i)"/><path fill="#DADDE3" d="M328 155h72v8h-72zM328 165h54.805v8H328z"/><mask id="j" fill="#fff"><path d="M322 179h84v30h-84z"/></mask><path fill="#C8CCD1" d="M322 179v-.5h-.5v.5zm84 0h.5v-.5h-.5zm-84 0v.5h84v-1h-84zm84 0h-.5v30h1v-30zm-84 30h.5v-30h-1v30z" mask="url(#j)"/><path fill="#DADDE3" d="M328 185h37.59v8H328zM328 195h72v8h-72z"/><mask id="k" fill="#fff"><path d="M322 209h84v40h-84z"/></mask><path fill="#C8CCD1" d="M322 209v-.5h-.5v.5zm84 0h.5v-.5h-.5zm-84 0v.5h84v-1h-84zm84 0h-.5v40h1v-40zm-84 40h.5v-40h-1v40z" mask="url(#k)"/><path fill="#DADDE3" d="M328 215h37.22v8H328zM328 225h72v8h-72zM328 235h58.322v8H328z"/><mask id="l" fill="#fff"><path d="M322 249h84v30h-84z"/></mask><path fill="#C8CCD1" d="M322 249v-.5h-.5v.5zm84 0h.5v-.5h-.5zm0 30v.5h.5v-.5zm-84 0h-.5v.5h.5zm0-30v.5h84v-1h-84zm84 0h-.5v30h1v-30zm0 30v-.5h-84v1h84zm-84 0h.5v-30h-1v30z" mask="url(#l)"/><path fill="#DADDE3" d="M328 255h72v8h-72zM328 265h54.805v8H328z"/></g><defs><clipPath id="a"><path fill="#fff" d="M0 0h512v288H0z"/></clipPath></defs></svg>