<svg xmlns="http://www.w3.org/2000/svg" width="512" height="288" fill="none"><g clip-path="url(#a)"><path fill="#E8EEFF" d="M0 0h512v288H0z"/><path fill="#fff" d="M52 73h408v335H52z"/><path fill="#DADDE3" d="M64 85h50.046v8H64z"/><path stroke="#C8CCD1" stroke-width=".5" d="M64 99h384"/><path fill="#36C" fill-rule="evenodd" d="M69 105a5 5 0 1 0 0 10 5 5 0 0 0 0-10m-.5 2.5h1v1h-1zm0 5v-3h1v3z" clip-rule="evenodd"/><path fill="#36C" d="M78 106h263v8H78z"/><mask id="b" fill="#fff"><path d="M64 121h278v226H64z"/></mask><path fill="#C8CCD1" d="M64 121v-.5h-.5v.5zm278 0h.5v-.5h-.5zm0 226v.5h.5v-.5zm-278 0h-.5v.5h.5zm0-226v.5h278v-1H64zm278 0h-.5v226h1V121zm0 226v-.5H64v1h278zm-278 0h.5V121h-1v226z" mask="url(#b)"/><path fill="#DADDE3" d="M70 127h266v8H70z"/><mask id="c" fill="#fff"><path d="M70 141h266v56H70z"/></mask><path fill="#C8CCD1" d="M70 141v.5h266v-1H70z" mask="url(#c)"/><path fill="#DADDE3" d="M72 147h56.222v8H72zM134.222 147h46.945v8h-46.945zM305.279 147H334v8h-28.721zM72 159h262v8H72zM72 171h262v8H72zM72 183h43.728v8H72z"/><mask id="d" fill="#fff"><path d="M70 197h266v44H70z"/></mask><path fill="#C8CCD1" d="M70 197v.5h266v-1H70z" mask="url(#d)"/><path fill="#DADDE3" d="M72 203h56.222v8H72zM305.279 203H334v8h-28.721zM72 215h262v8H72zM72 227h43.728v8H72z"/><mask id="e" fill="#fff"><path d="M70 241h266v56H70z"/></mask><path fill="#C8CCD1" d="M70 241v.5h266v-1H70z" mask="url(#e)"/><path fill="#DADDE3" d="M72 247h56.222v8H72zM134.222 247h46.945v8h-46.945zM305.279 247H334v8h-28.721zM72 259h262v8H72zM72 271h262v8H72zM72 283h43.728v8H72z"/><mask id="f" fill="#fff"><path d="M352 121h96v34h-96z"/></mask><path fill="#C8CCD1" d="M352 121v-.5h-.5v.5zm96 0h.5v-.5h-.5zm0 34v.5h.5v-.5zm-96 0h-.5v.5h.5zm0-34v.5h96v-1h-96zm96 0h-.5v34h1v-34zm0 34v-.5h-96v1h96zm-96 0h.5v-34h-1v34z" mask="url(#f)"/><path fill="#DADDE3" d="M358 127h53.981v8H358zM358 141h39v8h-39zM403 141h39v8h-39z"/><mask id="g" fill="#fff"><path d="M352 165h96v156h-96z"/></mask><path fill="#C8CCD1" d="M352 165v-.5h-.5v.5zm96 0h.5v-.5h-.5zm0 156v.5h.5v-.5zm-96 0h-.5v.5h.5zm0-156v.5h96v-1h-96zm96 0h-.5v156h1V165zm0 156v-.5h-96v1h96zm-96 0h.5V165h-1v156z" mask="url(#g)"/><path fill="#DADDE3" d="M358 171h84v8h-84z"/><mask id="h" fill="#fff"><path d="M358 185h84v30h-84z"/></mask><path fill="#C8CCD1" d="M358 185v-.5h-.5v.5zm84 0h.5v-.5h-.5zm-84 0v.5h84v-1h-84zm84 0h-.5v30h1v-30zm-84 30h.5v-30h-1v30z" mask="url(#h)"/><path fill="#DADDE3" d="M364 191h72v8h-72zM364 201h54.805v8H364z"/><mask id="i" fill="#fff"><path d="M358 215h84v30h-84z"/></mask><path fill="#C8CCD1" d="M358 215v-.5h-.5v.5zm84 0h.5v-.5h-.5zm-84 0v.5h84v-1h-84zm84 0h-.5v30h1v-30zm-84 30h.5v-30h-1v30z" mask="url(#i)"/><path fill="#DADDE3" d="M364 221h37.59v8H364zM364 231h72v8h-72z"/><mask id="j" fill="#fff"><path d="M358 245h84v40h-84z"/></mask><path fill="#C8CCD1" d="M358 245v-.5h-.5v.5zm84 0h.5v-.5h-.5zm-84 0v.5h84v-1h-84zm84 0h-.5v40h1v-40zm-84 40h.5v-40h-1v40z" mask="url(#j)"/><path fill="#DADDE3" d="M364 251h37.22v8H364zM364 261h72v8h-72zM364 271h58.322v8H364z"/><mask id="k" fill="#fff"><path d="M358 285h84v30h-84z"/></mask><path fill="#C8CCD1" d="M358 285v-.5h-.5v.5zm84 0h.5v-.5h-.5zm0 30v.5h.5v-.5zm-84 0h-.5v.5h.5zm0-30v.5h84v-1h-84zm84 0h-.5v30h1v-30zm0 30v-.5h-84v1h84zm-84 0h.5v-30h-1v30z" mask="url(#k)"/></g><defs><clipPath id="a"><path fill="#fff" d="M0 0h512v288H0z"/></clipPath></defs></svg>