<svg xmlns="http://www.w3.org/2000/svg" width="512" height="288" fill="none"><g clip-path="url(#a)"><path fill="#E8EEFF" d="M0 0h512v288H0z"/><path fill="#fff" d="M52 73h408v335H52z"/><path fill="#DADDE3" d="M64 85h50.046v8H64z"/><path fill="#36C" d="M343 86h85v8h-85z"/><path fill="#36C" fill-rule="evenodd" d="m447.43 93.745-2.93-4.94V86.5h.5v-1h-4v1h.5v2.305l-2.93 4.94a.499.499 0 0 0 .43.755h8a.499.499 0 0 0 .43-.755m-5-4.545a.5.5 0 0 0 .07-.255V86.5h1v2.445c0 .09.024.178.07.255l1.07 1.8h-3.28z" clip-rule="evenodd"/><path stroke="#C8CCD1" stroke-width=".5" d="M64 99.5h384"/><mask id="b" fill="#fff"><path d="M64 106h278v226H64z"/></mask><path fill="#C8CCD1" d="M64 106v-.5h-.5v.5zm278 0h.5v-.5h-.5zm0 226v.5h.5v-.5zm-278 0h-.5v.5h.5zm0-226v.5h278v-1H64zm278 0h-.5v226h1V106zm0 226v-.5H64v1h278zm-278 0h.5V106h-1v226z" mask="url(#b)"/><path fill="#DADDE3" d="M70 112h266v8H70z"/><mask id="c" fill="#fff"><path d="M70 126h266v56H70z"/></mask><path fill="#C8CCD1" d="M70 126v.5h266v-1H70z" mask="url(#c)"/><path fill="#DADDE3" d="M72 132h56.222v8H72zm62.222 0h46.945v8h-46.945zm171.057 0H334v8h-28.721zM72 144h262v8H72zm0 12h262v8H72zm0 12h43.728v8H72z"/><mask id="d" fill="#fff"><path d="M70 182h266v44H70z"/></mask><path fill="#C8CCD1" d="M70 182v.5h266v-1H70z" mask="url(#d)"/><path fill="#DADDE3" d="M72 188h56.222v8H72zm233.279 0H334v8h-28.721zM72 200h262v8H72zm0 12h43.728v8H72z"/><mask id="e" fill="#fff"><path d="M70 226h266v56H70z"/></mask><path fill="#C8CCD1" d="M70 226v.5h266v-1H70z" mask="url(#e)"/><path fill="#DADDE3" d="M72 232h56.222v8H72zm62.222 0h46.945v8h-46.945zm171.057 0H334v8h-28.721zM72 244h262v8H72zm0 12h262v8H72zm0 12h43.728v8H72z"/><mask id="f" fill="#fff"><path d="M70 282h266v44H70z"/></mask><path fill="#C8CCD1" d="M70 282v.5h266v-1H70z" mask="url(#f)"/><mask id="g" fill="#fff"><path d="M352 106h96v34h-96z"/></mask><path fill="#C8CCD1" d="M352 106v-.5h-.5v.5zm96 0h.5v-.5h-.5zm0 34v.5h.5v-.5zm-96 0h-.5v.5h.5zm0-34v.5h96v-1h-96zm96 0h-.5v34h1v-34zm0 34v-.5h-96v1h96zm-96 0h.5v-34h-1v34z" mask="url(#g)"/><path fill="#DADDE3" d="M358 112h53.981v8H358zm0 14h39v8h-39zm45 0h39v8h-39z"/><mask id="h" fill="#fff"><path d="M352 150h96v156h-96z"/></mask><path fill="#C8CCD1" d="M352 150v-.5h-.5v.5zm96 0h.5v-.5h-.5zm0 156v.5h.5v-.5zm-96 0h-.5v.5h.5zm0-156v.5h96v-1h-96zm96 0h-.5v156h1V150zm0 156v-.5h-96v1h96zm-96 0h.5V150h-1v156z" mask="url(#h)"/><path fill="#DADDE3" d="M358 156h84v8h-84z"/><mask id="i" fill="#fff"><path d="M358 170h84v30h-84z"/></mask><path fill="#C8CCD1" d="M358 170v-.5h-.5v.5zm84 0h.5v-.5h-.5zm-84 0v.5h84v-1h-84zm84 0h-.5v30h1v-30zm-84 30h.5v-30h-1v30z" mask="url(#i)"/><path fill="#DADDE3" d="M364 176h72v8h-72zm0 10h54.805v8H364z"/><mask id="j" fill="#fff"><path d="M358 200h84v30h-84z"/></mask><path fill="#C8CCD1" d="M358 200v-.5h-.5v.5zm84 0h.5v-.5h-.5zm-84 0v.5h84v-1h-84zm84 0h-.5v30h1v-30zm-84 30h.5v-30h-1v30z" mask="url(#j)"/><path fill="#DADDE3" d="M364 206h37.59v8H364zm0 10h72v8h-72z"/><mask id="k" fill="#fff"><path d="M358 230h84v40h-84z"/></mask><path fill="#C8CCD1" d="M358 230v-.5h-.5v.5zm84 0h.5v-.5h-.5zm-84 0v.5h84v-1h-84zm84 0h-.5v40h1v-40zm-84 40h.5v-40h-1v40z" mask="url(#k)"/><path fill="#DADDE3" d="M364 236h37.22v8H364zm0 10h72v8h-72zm0 10h58.322v8H364z"/><mask id="l" fill="#fff"><path d="M358 270h84v30h-84z"/></mask><path fill="#C8CCD1" d="M358 270v-.5h-.5v.5zm84 0h.5v-.5h-.5zm0 30v.5h.5v-.5zm-84 0h-.5v.5h.5zm0-30v.5h84v-1h-84zm84 0h-.5v30h1v-30zm0 30v-.5h-84v1h84zm-84 0h.5v-30h-1v30z" mask="url(#l)"/><path fill="#DADDE3" d="M364 276h72v8h-72zm0 10h54.805v8H364z"/></g><defs><clipPath id="a"><path fill="#fff" d="M0 0h512v288H0z"/></clipPath></defs></svg>